<?xml version="1.0" standalone="no"?>
<!DOCTYPE svg PUBLIC "-//W3C//DTD SVG 20010904//EN"
 "http://www.w3.org/TR/2001/REC-SVG-20010904/DTD/svg10.dtd">
<svg version="1.0" xmlns="http://www.w3.org/2000/svg"
 width="199.000000pt" height="100.000000pt" viewBox="0 0 199.000000 100.000000"
 preserveAspectRatio="xMidYMid meet">

<g transform="translate(0.000000,100.000000) scale(0.100000,-0.100000)"
fill="#000000" stroke="none">
<path d="M1516 869 c-64 -44 -116 -74 -116 -67 0 7 -33 33 -73 58 l-72 45
-112 -3 c-98 -3 -113 -6 -113 -20 -1 -16 -1 -16 -11 1 -9 15 -30 17 -214 17
l-205 0 0 -52 0 -53 -20 33 -20 32 -234 0 -233 0 -6 -33 c-3 -18 -13 -119 -23
-224 -20 -216 -24 -197 63 -265 53 -40 61 -43 134 -48 l77 -5 7 67 c3 37 10
70 16 73 5 4 6 -23 2 -69 -4 -49 -2 -80 5 -89 8 -9 8 -25 0 -56 -11 -42 -10
-43 32 -86 l44 -44 311 -1 c349 0 355 1 355 65 0 19 5 37 10 40 6 3 10 17 10
31 0 17 5 24 20 24 18 0 20 -7 20 -80 l0 -80 50 0 c50 0 51 1 69 43 l19 42 7
-42 8 -43 106 0 107 0 48 49 c43 44 47 52 41 80 -5 23 -3 31 7 31 18 0 176
110 204 141 11 13 37 48 58 76 l37 53 -36 17 c-35 16 -35 18 -17 33 16 12 52
96 52 120 0 3 -16 12 -35 19 -25 9 -41 24 -56 54 -19 37 -23 39 -34 24 -12
-16 -13 -16 -19 5 -3 13 -6 34 -6 48 0 20 -15 34 -74 72 l-75 47 -115 -80z
m167 10 c64 -42 71 -57 9 -19 -27 16 -52 30 -56 30 -11 0 -176 -113 -176 -120
0 -4 3 -22 6 -39 6 -29 9 -31 39 -25 30 5 33 4 39 -26 3 -18 6 -54 6 -81 0
-49 1 -50 55 -84 57 -37 74 -37 103 -3 8 11 1 20 -35 42 -38 24 -49 27 -64 18
-18 -11 -19 -9 -19 30 0 52 19 90 21 43 1 -25 2 -27 7 -9 7 20 14 17 121 -53
62 -40 111 -76 109 -78 -2 -3 -42 -31 -89 -63 l-84 -58 -100 59 c-55 33 -102
62 -104 63 -3 2 -19 183 -21 227 0 11 -8 17 -25 17 -27 0 -32 9 -13 28 17 17
26 15 32 -5 3 -11 4 -7 3 7 -1 18 3 24 14 22 9 -1 50 22 90 52 41 31 77 55 80
56 3 0 27 -14 52 -31z m-953 -4 c0 -11 -12 -15 -45 -15 l-45 0 0 -59 c0 -64 8
-74 48 -59 13 4 28 6 33 2 5 -3 10 -69 11 -147 1 -78 3 -125 5 -104 l4 37 120
0 119 0 0 -40 0 -40 -175 0 -176 0 1 173 c0 94 -1 190 -3 212 l-2 40 50 6 c28
3 51 7 53 7 1 1 2 -5 2 -13z m248 -37 c-1 -37 -2 -39 -5 -10 l-4 32 -115 0
c-69 0 -114 4 -114 10 0 6 47 10 120 10 l120 0 -2 -42z m330 1 c80 -51 74 -64
-6 -15 -56 34 -64 36 -146 36 l-86 0 0 -56 0 -57 39 7 c34 5 39 3 45 -17 3
-12 6 -32 6 -45 0 -18 4 -22 18 -18 9 3 31 8 47 11 58 13 65 17 65 36 0 15 7
19 35 19 27 0 35 -4 35 -17 0 -10 3 -27 6 -38 4 -17 -5 -25 -52 -48 -65 -32
-68 -22 35 -129 l55 -58 -49 0 c-48 0 -53 3 -122 71 l-73 70 0 -71 0 -70 -45
0 -45 0 -1 73 c-2 120 -15 336 -17 277 -3 -61 -15 -93 -26 -65 -9 25 -7 63 6
106 l11 39 101 0 c101 0 101 0 164 -41z m-770 -47 l-1 -37 -4 33 c-4 31 -6 32
-49 32 l-45 0 3 -47 3 -48 44 2 44 2 -6 -112 c-4 -62 -7 -131 -7 -154 l0 -43
-50 0 -50 0 0 84 0 85 -110 3 -110 3 0 -72 0 -73 -56 0 c-48 0 -55 2 -50 18 8
30 19 214 17 290 l-2 72 56 0 c30 0 55 -4 55 -10 0 -5 -20 -10 -44 -10 l-44 0
-4 -46 c-2 -25 -1 -47 1 -50 2 -2 22 -4 43 -4 33 0 38 -3 38 -22 0 -23 2 -23
110 -20 l110 3 0 78 c0 43 2 80 4 82 2 2 27 2 55 1 l51 -4 -2 -36z m-148 -27
l0 -55 -61 0 c-52 0 -60 2 -55 16 3 9 6 33 6 55 l0 39 55 0 55 0 0 -55z m1367
-47 c-3 -7 -5 -2 -5 12 0 14 2 19 5 13 2 -7 2 -19 0 -25z m73 -11 c0 -10 3
-16 8 -14 4 3 21 -1 37 -8 l30 -12 -29 -8 c-19 -5 -33 -19 -43 -44 l-16 -36
-12 34 c-8 26 -21 39 -51 51 l-39 17 38 7 c27 5 41 14 49 32 12 26 28 16 28
-19z m-823 -79 c-2 -18 -4 -4 -4 32 0 36 2 50 4 33 2 -18 2 -48 0 -65z m-77
27 l0 -35 -95 0 -95 0 0 35 0 35 95 0 95 0 0 -35z m-320 -271 c0 -3 -5 -14
-10 -25 -9 -16 -22 -19 -80 -19 -40 0 -70 -4 -70 -10 0 -6 28 -10 63 -10 36 0
68 -5 75 -12 16 -16 16 -90 0 -106 -8 -8 -46 -12 -104 -12 l-91 0 5 25 c4 24
8 25 68 25 50 0 64 3 64 15 0 12 -13 15 -58 15 -67 0 -82 11 -82 60 0 20 5 41
12 48 12 12 208 18 208 6z m100 -69 l0 -75 60 0 c57 0 60 -1 60 -25 0 -25 0
-25 -95 -25 l-95 0 0 35 c0 21 6 38 18 45 16 11 16 11 0 6 -16 -5 -18 2 -18
54 l0 60 35 0 35 0 0 -75z m378 63 c7 -7 12 -29 12 -50 0 -31 -4 -38 -19 -38
-11 0 -26 -3 -35 -6 -13 -5 -16 1 -16 25 0 31 -1 31 -50 31 l-50 0 0 -35 c0
-19 -4 -35 -9 -35 -5 0 -23 -3 -40 -6 l-31 -6 0 54 c0 30 5 59 12 66 16 16
210 16 226 0z m260 -15 c3 -19 -1 -23 -26 -23 -16 0 -46 -7 -65 -15 -20 -8
-39 -15 -42 -15 -3 0 -5 7 -5 15 0 10 -11 15 -35 15 -31 0 -35 3 -35 25 l0 26
103 -3 c97 -3 102 -4 105 -25z m232 2 c0 -24 -2 -25 -65 -25 -37 0 -65 -4 -65
-10 0 -5 24 -10 53 -10 68 0 83 -13 90 -77 l6 -53 -104 0 -105 0 0 25 c0 24 2
25 70 25 55 0 70 3 70 15 0 11 -16 15 -67 17 l-68 3 -5 48 c-3 26 -1 52 4 57
6 6 50 10 98 10 87 0 88 0 88 -25z m-567 -132 c-13 -2 -35 -2 -50 0 -16 2 -5
4 22 4 28 0 40 -2 28 -4z m294 -45 c-2 -13 -4 -5 -4 17 -1 22 1 32 4 23 2 -10
2 -28 0 -40z m-56 12 c16 0 29 -4 29 -10 0 -5 -16 -10 -35 -10 -32 0 -35 3
-34 28 1 16 3 20 6 10 3 -12 14 -18 34 -18z m-362 4 c17 11 132 9 144 -3 8 -8
-12 -11 -75 -11 -70 0 -88 3 -99 18 -13 15 -12 16 3 4 9 -8 22 -11 27 -8z"/>
</g>
</svg>
