<?xml version="1.0" standalone="no"?>
<!DOCTYPE svg PUBLIC "-//W3C//DTD SVG 20010904//EN"
 "http://www.w3.org/TR/2001/REC-SVG-20010904/DTD/svg10.dtd">
<svg version="1.0" xmlns="http://www.w3.org/2000/svg"
 width="199.000000pt" height="100.000000pt" viewBox="0 0 199.000000 100.000000"
 preserveAspectRatio="xMidYMid meet">

<g transform="translate(0.000000,100.000000) scale(0.100000,-0.100000)"
fill="#000000" stroke="none">
<path d="M1596 855 c-6 -17 15 -25 69 -25 36 0 43 3 42 18 -1 14 -11 17 -53
19 -36 1 -54 -3 -58 -12z"/>
<path d="M1380 854 c0 -4 8 -13 18 -20 15 -12 14 -13 -14 -14 -17 0 -48 7 -67
15 -46 19 -61 19 -53 0 9 -24 -40 -31 -80 -11 -45 21 -54 20 -54 -4 0 -16 -8
-19 -57 -22 -40 -2 -70 3 -95 15 -37 17 -38 17 -38 -2 0 -31 -62 -37 -105 -11
l-34 21 -3 -23 c-3 -20 -9 -23 -50 -24 -30 -1 -52 3 -59 12 -23 28 -29 12 -29
-86 0 -91 -2 -100 -19 -100 -14 0 -20 10 -25 46 -3 26 -6 62 -6 81 l0 34 -46
-7 c-39 -5 -49 -3 -70 17 l-24 22 0 -76 c0 -70 -2 -77 -20 -77 -12 0 -22 -9
-26 -24 -3 -14 -12 -27 -20 -30 -8 -3 -14 -14 -14 -25 0 -10 -7 -22 -16 -25
-23 -9 -24 -8 -24 19 0 21 -5 25 -30 25 -25 0 -30 -4 -30 -24 0 -43 -60 -51
-61 -8 0 26 -1 26 -11 5 -16 -33 -4 -53 29 -49 15 2 21 1 13 -1 -8 -3 -20 -10
-27 -15 -7 -6 -33 -7 -63 -3 -46 6 -49 8 -33 21 17 13 17 13 1 14 -12 0 -18 8
-18 23 0 12 -5 29 -10 37 -8 13 -10 12 -10 -2 0 -12 -8 -18 -23 -18 -18 0 -23
-6 -25 -30 -2 -24 1 -28 15 -23 15 6 16 4 5 -9 -19 -24 -5 -71 19 -65 14 4 24
-3 34 -24 9 -16 21 -26 28 -23 7 2 17 -6 23 -18 6 -13 9 -18 8 -12 -2 7 8 14
22 17 15 3 24 -1 25 -9 1 -8 3 -18 4 -24 1 -5 3 -18 4 -27 1 -13 4 -14 13 -5
17 17 41 15 34 -3 -8 -22 4 -45 24 -45 10 0 21 -9 25 -19 4 -13 12 -17 25 -14
13 3 22 -1 26 -12 6 -15 16 -16 68 -11 91 11 106 16 106 38 0 38 25 11 31 -33
7 -57 28 -99 48 -99 9 0 52 5 96 11 59 9 84 17 96 32 14 18 21 19 45 9 47 -18
156 6 194 42 28 25 33 27 48 14 9 -8 24 -17 32 -20 28 -10 134 14 157 34 20
18 23 19 46 4 13 -9 30 -14 38 -12 8 2 26 7 42 10 22 5 27 12 27 36 0 38 10
43 89 45 121 4 121 4 121 21 0 9 9 18 20 21 11 3 20 12 20 20 0 8 9 17 20 20
11 3 20 14 20 24 0 12 7 19 20 19 15 0 20 7 20 25 0 18 5 25 18 25 11 0 24 11
30 25 7 16 23 28 41 31 24 5 30 12 35 43 3 20 6 42 6 49 0 14 -37 17 -42 3 -5
-15 -58 -25 -58 -12 0 12 6 15 55 26 29 7 29 8 8 16 -14 5 -21 14 -17 22 4 11
-1 13 -23 9 -15 -3 -23 -7 -16 -9 13 -5 6 -34 -11 -45 -21 -15 -33 -8 -29 16
4 21 2 24 -16 19 -17 -4 -21 -1 -21 21 0 21 -5 26 -25 26 -18 0 -25 5 -25 20
0 11 -6 20 -12 21 -7 1 -2 4 12 8 33 10 50 3 50 -19 0 -13 5 -17 20 -13 11 3
20 7 20 10 0 9 -29 33 -39 33 -6 0 -11 8 -11 18 0 14 -11 17 -72 18 -40 1 -99
3 -132 3 -32 1 -74 8 -94 16 -37 16 -62 19 -62 9z m170 -58 c0 -45 -13 -86
-26 -86 -8 0 -14 -9 -14 -20 0 -11 -6 -20 -14 -20 -9 0 -16 -18 -20 -50 -6
-45 -9 -50 -32 -50 -25 0 -26 2 -20 45 7 42 6 45 -15 45 -16 0 -20 5 -16 20 4
15 0 20 -14 20 -12 0 -19 7 -19 20 0 13 -7 20 -20 20 -11 0 -20 5 -20 10 0 6
9 10 20 10 13 0 20 7 20 19 0 17 18 31 41 31 5 0 9 -23 9 -51 l0 -51 31 6 c17
3 38 6 46 6 12 0 13 9 8 41 -8 44 2 59 38 59 11 0 17 -8 17 -24z m-280 -32 c0
-31 3 -35 20 -29 16 5 20 2 20 -18 0 -20 4 -24 20 -20 15 4 20 0 20 -16 0 -11
5 -21 10 -21 6 0 10 -9 10 -20 0 -11 7 -20 16 -20 11 0 14 -8 12 -27 -2 -22
-9 -29 -30 -31 -23 -3 -28 1 -28 17 0 14 -6 21 -20 21 -15 0 -20 7 -20 26 0
41 -25 23 -28 -22 -4 -41 -15 -54 -46 -54 -18 0 -19 6 -13 115 4 64 9 120 12
125 4 6 15 10 26 10 15 0 19 -7 19 -36z m-102 -1 c-3 -25 -8 -28 -43 -31 -22
-1 -55 -5 -72 -8 l-33 -5 0 -69 c0 -79 -5 -76 98 -61 52 7 52 7 52 -20 0 -26
-4 -28 -47 -34 -27 -3 -63 -8 -80 -11 -28 -4 -33 -2 -33 16 0 15 -6 20 -25 20
-25 0 -25 1 -25 85 0 84 0 85 25 85 20 0 25 5 25 25 0 22 4 24 58 28 31 2 67
4 80 5 20 2 23 -2 20 -25z m452 17 c24 -8 24 -8 -5 -9 -16 0 -37 4 -45 9 -12
8 -11 10 5 9 11 -1 31 -5 45 -9z m-690 -120 c0 -103 -1 -110 -20 -110 -13 0
-20 -7 -20 -19 0 -21 -26 -31 -82 -31 -31 0 -38 4 -38 20 0 15 -7 20 -25 20
l-25 0 0 105 0 105 30 0 30 0 0 -101 0 -101 31 6 c17 3 38 6 45 6 11 0 14 22
14 98 0 54 3 102 7 105 3 4 17 7 30 7 23 0 23 -1 23 -110z m-340 -22 l0 -103
51 4 c50 3 51 3 47 -25 -3 -28 -5 -29 -77 -37 -40 -4 -74 -7 -76 -5 -1 2 -5
60 -7 130 -5 138 -8 130 50 137 9 1 12 -25 12 -101z m997 86 c-3 -3 -12 -4
-19 -1 -8 3 -5 6 6 6 11 1 17 -2 13 -5z m110 -14 c3 -10 14 -22 24 -25 12 -4
19 -16 19 -31 0 -19 5 -24 28 -25 l27 0 -25 -10 c-17 -7 -26 -7 -28 0 -2 6
-15 11 -28 11 -20 0 -25 4 -22 22 4 33 -29 36 -43 5 -16 -35 -49 -43 -49 -12
0 13 -6 26 -12 29 -7 4 4 4 25 2 33 -4 37 -3 37 19 0 13 -6 26 -12 28 -7 3 2
6 20 6 26 1 35 -4 39 -19z m123 -160 c0 -13 -9 -22 -25 -26 -15 -4 -25 -13
-25 -24 0 -17 -19 -30 -42 -30 -6 0 -8 9 -5 20 4 16 0 20 -19 20 -19 0 -23 5
-22 25 3 32 48 37 48 5 0 -13 7 -20 20 -20 15 0 20 7 20 25 0 20 5 25 25 25
18 0 25 -5 25 -20z m-292 -14 l44 -22 -81 -13 c-60 -9 -85 -9 -98 -1 -16 10
-15 11 5 7 12 -3 20 -1 17 4 -3 4 12 7 35 4 22 -2 38 0 35 5 -3 4 -15 6 -28 3
-18 -4 -19 -3 -7 6 13 10 13 11 0 12 -10 0 -8 3 5 9 27 12 24 12 73 -14z
m-111 7 c-9 -2 -15 -9 -12 -14 4 -5 -7 -9 -24 -9 -16 0 -33 5 -37 12 -5 7 -2
9 7 6 8 -3 23 -2 34 3 11 4 27 7 35 7 10 0 9 -2 -3 -5z m223 -7 c0 -8 9 -18
20 -21 11 -3 20 -15 20 -25 0 -11 7 -17 17 -16 11 0 19 -7 21 -20 2 -16 -4
-23 -22 -28 -17 -4 -26 -13 -26 -26 0 -15 -7 -20 -25 -20 -20 0 -25 5 -25 25
0 20 5 25 24 25 13 0 26 7 30 15 4 11 -1 15 -19 15 -18 0 -25 5 -25 20 0 13
-7 20 -20 20 -15 0 -20 7 -20 25 0 20 5 25 25 25 15 0 25 -6 25 -14z m-370
-17 c0 -5 6 -7 13 -3 9 5 9 4 1 -5 -8 -9 -18 -8 -40 4 l-29 15 28 0 c15 0 27
-5 27 -11z m-911 -3 c-2 -2 -20 -6 -39 -10 -25 -4 -31 -3 -20 4 14 9 69 15 59
6z m865 -12 c12 -12 26 -14 56 -9 23 4 40 3 40 -2 0 -12 -147 -31 -162 -22 -7
4 4 9 23 11 39 3 46 21 10 26 -16 3 -21 0 -16 -8 5 -9 1 -10 -15 -5 -15 5 -28
1 -45 -15 -17 -16 -49 -26 -119 -38 -53 -8 -99 -13 -102 -9 -4 3 -4 14 0 23 5
13 9 15 18 6 16 -16 46 -15 64 2 12 13 12 16 -3 25 -16 9 -15 10 7 11 14 0 39
-8 55 -19 l30 -18 33 28 c38 33 100 40 126 13z m376 -20 c0 -2 -7 -4 -15 -4
-8 0 -15 4 -15 10 0 5 7 7 15 4 8 -4 15 -8 15 -10z m-687 -1 c-7 -2 -19 -2
-25 0 -7 3 -2 5 12 5 14 0 19 -2 13 -5z m-65 -43 c-28 -38 -45 -28 -17 11 11
16 25 27 30 24 5 -4 -1 -19 -13 -35z m107 30 c3 -5 2 -10 -4 -10 -5 0 -13 5
-16 10 -3 6 -2 10 4 10 5 0 13 -4 16 -10z m395 -10 c0 -5 -4 -10 -10 -10 -5 0
-10 5 -10 10 0 6 5 10 10 10 6 0 10 -4 10 -10z m-959 -50 c25 0 29 4 29 27 0
21 3 24 12 15 9 -9 9 -18 1 -34 -6 -13 -14 -31 -17 -40 -8 -25 -47 -23 -53 2
-3 13 -14 20 -29 20 -17 0 -24 -6 -24 -20 0 -16 7 -20 30 -20 23 0 30 -4 30
-20 0 -16 7 -20 31 -20 28 0 31 2 25 25 -5 20 -3 25 13 25 26 0 35 -37 10 -43
-11 -3 -19 -14 -19 -26 0 -12 -3 -21 -7 -21 -5 0 -18 -3 -30 -6 -19 -5 -23 -2
-23 15 0 17 -6 21 -30 21 -24 0 -30 4 -30 21 0 18 -4 20 -29 14 -27 -6 -30 -4
-33 22 -3 25 -7 28 -38 26 -19 -1 -25 1 -12 4 12 2 27 13 32 24 15 27 54 26
47 -1 -3 -13 0 -20 9 -20 8 0 14 10 14 24 0 19 6 25 28 28 22 2 28 -1 30 -19
3 -18 10 -23 33 -23z m239 46 c0 -9 -30 -14 -35 -6 -4 6 3 10 14 10 12 0 21
-2 21 -4z m525 -16 c3 -6 -4 -10 -17 -10 -18 0 -20 2 -8 10 19 12 18 12 25 0z
m-495 -4 c0 -11 -19 -15 -25 -6 -3 5 1 10 9 10 9 0 16 -2 16 -4z m10 -22 c17
3 30 1 30 -4 0 -6 -9 -10 -19 -10 -11 0 -25 -2 -33 -5 -7 -3 -19 5 -27 17 -13
21 -13 22 2 9 11 -8 28 -11 47 -7z m430 12 c0 -2 -7 -6 -15 -10 -8 -3 -15 -1
-15 4 0 6 7 10 15 10 8 0 15 -2 15 -4z m-215 -26 c3 -5 -3 -10 -14 -10 -12 0
-21 5 -21 10 0 6 6 10 14 10 8 0 18 -4 21 -10z m-75 -10 c0 -5 -4 -10 -9 -10
-6 0 -13 5 -16 10 -3 6 1 10 9 10 9 0 16 -4 16 -10z m724 -9 c6 -9 -75 -23
-84 -15 -8 9 24 24 52 24 15 0 29 -4 32 -9z m-954 -35 c0 -3 -4 -8 -10 -11 -5
-3 -10 -1 -10 4 0 6 5 11 10 11 6 0 10 -2 10 -4z m700 -75 c-23 -13 -90 -21
-90 -11 0 11 25 17 70 19 24 0 30 -2 20 -8z m-245 -31 c3 -5 0 -10 -7 -11 -7
0 -35 -4 -61 -8 -32 -5 -45 -5 -38 2 8 8 40 17 93 26 4 0 10 -3 13 -9z m-210
-40 c3 -5 -2 -10 -13 -10 -11 0 -41 -3 -68 -6 -34 -5 -46 -3 -39 4 9 9 33 14
97 20 9 1 20 -2 23 -8z"/>
<path d="M1010 469 c0 -5 9 -9 20 -9 11 0 20 2 20 4 0 2 -9 6 -20 9 -11 3 -20
1 -20 -4z"/>
<path d="M1478 843 c7 -3 16 -2 19 1 4 3 -2 6 -13 5 -11 0 -14 -3 -6 -6z"/>
<path d="M280 771 c0 -11 -1 -24 -2 -28 -1 -5 6 -9 15 -11 22 -4 23 31 2 48
-13 10 -15 9 -15 -9z"/>
<path d="M1799 748 c0 -2 -2 -13 -3 -25 -3 -25 2 -27 22 -14 11 7 10 9 -3 15
-9 3 -13 10 -10 16 3 5 4 10 1 10 -3 0 -6 -1 -7 -2z"/>
<path d="M227 718 c-7 -26 -1 -38 19 -38 18 0 18 34 0 49 -11 9 -15 7 -19 -11z"/>
<path d="M417 725 c-10 -9 -17 -30 -17 -46 0 -26 3 -29 30 -29 34 0 37 11 17
60 -13 29 -15 31 -30 15z"/>
<path d="M181 685 c2 -11 0 -25 -3 -31 -4 -6 3 -16 16 -22 24 -10 24 -10 15
20 -10 38 -32 64 -28 33z"/>
<path d="M316 664 c-9 -22 -8 -24 9 -24 8 0 15 9 15 20 0 24 -15 27 -24 4z"/>
<path d="M138 616 c-4 -19 0 -29 13 -37 15 -8 19 -6 19 9 0 10 -6 27 -14 37
-12 17 -13 17 -18 -9z"/>
<path d="M363 633 c-15 -3 -23 -12 -23 -24 0 -15 6 -19 30 -17 24 2 30 7 30
25 0 13 -3 22 -7 22 -5 -1 -18 -4 -30 -6z"/>
<path d="M266 612 c-4 -13 -5 -26 -2 -29 10 -11 18 4 14 29 l-4 23 -8 -23z"/>
<path d="M165 547 c-4 -10 -5 -21 -1 -24 10 -10 18 4 13 24 -4 17 -4 17 -12 0z"/>
</g>
</svg>
